<?xml version="1.0" encoding="UTF-8" standalone="no"?>
<svg
   viewBox="0 0 256 256"
   version="1.1"
   id="svg22"
   sodipodi:docname="cow2.svg"
   inkscape:version="1.2.2 (b0a8486541, 2022-12-01)"
   xmlns:inkscape="http://www.inkscape.org/namespaces/inkscape"
   xmlns:sodipodi="http://sodipodi.sourceforge.net/DTD/sodipodi-0.dtd"
   xmlns="http://www.w3.org/2000/svg"
   xmlns:svg="http://www.w3.org/2000/svg">
  <defs
     id="defs26" />
  <sodipodi:namedview
     id="namedview24"
     pagecolor="#ffffff"
     bordercolor="#000000"
     borderopacity="0.25"
     inkscape:showpageshadow="2"
     inkscape:pageopacity="0.0"
     inkscape:pagecheckerboard="0"
     inkscape:deskcolor="#d1d1d1"
     showgrid="false"
     inkscape:zoom="3.234375"
     inkscape:cx="128.77295"
     inkscape:cy="128"
     inkscape:window-width="1920"
     inkscape:window-height="1008"
     inkscape:window-x="0"
     inkscape:window-y="0"
     inkscape:window-maximized="1"
     inkscape:current-layer="svg22" />
  <rect
     width="256"
     height="256"
     fill="none"
     id="rect2" />
  <path
     d="M56,24h0a48,48,0,0,0,48,48h48a48,48,0,0,0,48-48h0"
     fill="none"
     stroke="currentColor"
     stroke-linecap="round"
     stroke-linejoin="round"
     stroke-width="16"
     id="path4" />
  <rect
     x="48"
     y="160"
     width="160"
     height="64"
     rx="32"
     fill="none"
     stroke="currentColor"
     stroke-linecap="round"
     stroke-linejoin="round"
     stroke-width="16"
     id="rect6" />
  <line
     x1="80"
     y1="192"
     x2="96"
     y2="192"
     fill="none"
     stroke="currentColor"
     stroke-linecap="round"
     stroke-linejoin="round"
     stroke-width="16"
     id="line8" />
  <line
     x1="160"
     y1="192"
     x2="176"
     y2="192"
     fill="none"
     stroke="currentColor"
     stroke-linecap="round"
     stroke-linejoin="round"
     stroke-width="16"
     id="line10" />
  <circle
     cx="100"
     cy="124"
     r="12"
     id="circle12" />
  <circle
     cx="156"
     cy="124"
     r="12"
     id="circle14" />
  <path
     d="M160,72h32.78a48,48,0,0,1,47.07,38.53A8,8,0,0,1,232,120H192"
     fill="none"
     stroke="currentColor"
     stroke-linecap="round"
     stroke-linejoin="round"
     stroke-width="16"
     id="path16" />
  <path
     d="M96,72H63.22a48,48,0,0,0-47.07,38.53A8,8,0,0,0,24,120H64"
     fill="none"
     stroke="currentColor"
     stroke-linecap="round"
     stroke-linejoin="round"
     stroke-width="16"
     id="path18" />
  <path
     d="M64,164.28V104A32,32,0,0,1,96,72h64a32,32,0,0,1,32,32v60.28"
     fill="none"
     stroke="currentColor"
     stroke-linecap="round"
     stroke-linejoin="round"
     stroke-width="16"
     id="path20" />
  <path
     style="fill:#ffffff;stroke-width:0.309179"
     d="m 72.108186,126.49183 0.09855,-26.16333 0.848621,-2.727682 c 0.466741,-1.500227 1.144157,-3.308922 1.505367,-4.019324 2.616154,-5.145249 7.242626,-9.451774 12.50947,-11.644367 4.564777,-1.900321 4.260517,-1.887459 42.200826,-1.783941 38.82241,0.105926 35.80807,-0.08212 41.24106,2.572701 7.16527,3.501294 12.09825,10.451267 13.14794,18.523883 0.15523,1.19379 0.28654,13.24718 0.29179,26.78532 l 0.01,24.61479 -1.62319,-0.34426 c -2.30973,-0.48988 -106.377639,-0.48736 -108.690834,0.003 l -1.637694,0.34691 0.09855,-26.16333 z m 33.160434,8.4676 c 4.73391,-2.27308 7.55834,-7.63003 6.71292,-12.73202 -0.97468,-5.88201 -5.46314,-9.93912 -11.32983,-10.24102 -6.379102,-0.32827 -11.414986,3.65353 -12.573645,9.9418 -1.065727,5.78391 2.303817,11.55605 7.921935,13.57055 2.446138,0.87712 6.85278,0.62071 9.26862,-0.53931 z m 55.97445,0.008 c 7.09409,-3.47081 9.05915,-12.49182 4.09518,-18.79968 -3.16022,-4.01576 -9.59428,-5.40206 -14.47394,-3.11859 -9.75213,4.56357 -9.11641,18.64571 1.01113,22.39783 2.54998,0.94473 6.91302,0.72137 9.36763,-0.47956 z"
     id="path606" />
  <path
     style="fill:#ffffff;stroke-width:0.309179"
     d="m 24.750693,109.77429 c 2.015493,-7.27315 5.135759,-12.617623 10.483085,-17.9557 6.928744,-6.916759 15.549825,-10.795783 25.790262,-11.604234 l 2.743847,-0.216618 -1.311929,1.931902 c -2.095428,3.085655 -4.281856,8.002937 -5.323164,11.97181 -0.905384,3.450802 -0.963639,4.026388 -1.096422,10.83285 l -0.140234,7.18841 h -15.870401 -15.8704 z"
     id="path608" />
  <path
     style="fill:#ffffff;stroke-width:0.309179"
     d="m 199.95771,104.7343 c -0.13121,-6.453152 -0.22818,-7.504645 -0.94811,-10.280194 -1.2733,-4.908996 -3.05463,-8.969815 -5.5442,-12.638812 l -1.23329,-1.817556 2.74385,0.216618 c 10.24044,0.808451 18.86152,4.687475 25.79026,11.604234 5.34733,5.338077 8.46759,10.68255 10.48309,17.9557 l 0.59535,2.14842 h -15.8704 -15.8704 z"
     id="path610" />
  <path
     style="fill:#ffffff;stroke-width:0.309179"
     d="m 74.991997,215.29598 c -8.784001,-1.88257 -15.842914,-8.7389 -18.105623,-17.58601 -0.836973,-3.27253 -0.836973,-8.14741 0,-11.41994 2.136418,-8.35332 8.646636,-15.00339 17.007346,-17.37269 1.916196,-0.54303 4.432582,-0.56951 54.10628,-0.56951 49.6737,0 52.19008,0.0265 54.10628,0.56951 14.46377,4.09883 21.76281,20.03314 15.31617,33.43627 -3.19892,6.65083 -9.41549,11.47337 -16.74024,12.98634 -3.37538,0.6972 -102.42419,0.65599 -105.690213,-0.044 z M 98.68774,199.67505 c 1.54073,-0.46162 3.78627,-2.42717 4.66102,-4.07985 0.95377,-1.802 0.95377,-5.3884 0,-7.1904 -0.87475,-1.65268 -3.12029,-3.61823 -4.66102,-4.07985 -0.819373,-0.24549 -4.365539,-0.36262 -10.916848,-0.36058 -9.511567,0.003 -9.733843,0.0173 -11.251403,0.72396 -1.708562,0.79563 -3.374235,2.49802 -4.106892,4.1974 -0.615393,1.42739 -0.615393,4.80115 0,6.22854 0.732657,1.69938 2.39833,3.40177 4.106892,4.1974 1.51756,0.7067 1.739836,0.721 11.251403,0.72396 6.551309,0.002 10.097475,-0.11509 10.916848,-0.36058 z m 80.79277,-0.36338 c 1.70856,-0.79563 3.37424,-2.49802 4.10689,-4.1974 0.26672,-0.61865 0.47624,-1.98873 0.47624,-3.11427 0,-1.12554 -0.20952,-2.49562 -0.47624,-3.11427 -0.73265,-1.69938 -2.39833,-3.40177 -4.10689,-4.1974 -1.51756,-0.70669 -1.73983,-0.721 -11.2514,-0.72396 -6.55131,-0.002 -10.09748,0.11509 -10.91685,0.36058 -1.54073,0.46162 -3.78627,2.42717 -4.66102,4.07985 -0.95377,1.802 -0.95377,5.3884 0,7.1904 0.82185,1.55273 3.09608,3.61206 4.47805,4.05488 0.61522,0.19714 4.91626,0.33669 10.90936,0.35398 9.74373,0.0281 9.91719,0.0176 11.44186,-0.69239 z"
     id="path612" />
  <path
     style="fill:#ffffff;stroke-width:0.309179"
     d="m 72.048193,128.03738 c 0.0055,-14.07451 0.138215,-25.61016 0.309988,-26.93593 1.03104,-7.957675 5.924498,-14.811264 13.129742,-18.389015 5.275376,-2.619478 2.44499,-2.444134 41.241057,-2.554894 38.19088,-0.109032 37.75599,-0.12827 42.39334,1.875367 3.00847,1.299859 5.29317,2.833064 7.5411,5.060648 3.11784,3.089631 4.90206,6.074274 6.28122,10.507262 l 0.84862,2.727682 0.0986,26.16569 0.0986,26.1657 -1.48311,-0.34121 c -2.08228,-0.47905 -106.91489,-0.48057 -109.000014,-0.002 l -1.468599,0.33737 z m 31.793917,7.41981 c 5.58498,-1.73824 9.17003,-7.72226 8.10115,-13.52208 -0.72507,-3.93429 -3.22316,-7.19435 -6.82249,-8.90352 -1.82936,-0.86868 -2.28704,-0.9543 -5.10145,-0.9543 -2.831853,0 -3.265956,0.0825 -5.163501,0.98146 -9.774433,4.63054 -9.0876,18.71758 1.091264,22.38201 2.118654,0.76273 5.474747,0.76971 7.895027,0.0164 z m 57.38786,-0.49776 c 9.17693,-4.40649 9.1255,-17.53692 -0.0858,-21.90068 -1.89754,-0.89894 -2.33165,-0.98146 -5.1635,-0.98146 -2.82613,0 -3.26447,0.0829 -5.10145,0.96457 -9.73415,4.67202 -9.1122,18.65962 0.99621,22.40465 2.5156,0.93199 6.87153,0.70519 9.35453,-0.48708 z"
     id="path614" />
  <path
     style="fill:#ffffff;stroke-width:0.309179"
     d="m 24.425121,111.26621 c 0,-0.98777 1.997127,-6.75695 3.108993,-8.98107 1.809207,-3.619036 4.423462,-7.19256 7.54652,-10.315618 5.742705,-5.742705 12.509689,-9.407771 20.190115,-10.935167 3.552455,-0.706471 8.11145,-1.132238 8.10957,-0.757356 -7.29e-4,0.145235 -0.425962,0.890151 -0.944961,1.655368 -2.242638,3.30656 -4.365239,8.28438 -5.603095,13.140097 -0.513228,2.013226 -0.659593,3.810899 -0.786668,9.661836 l -0.156123,7.18841 H 40.157296 24.425121 Z"
     id="path616" />
  <path
     style="fill:#ffffff;stroke-width:0.309179"
     d="m 199.95441,104.7343 c -0.16722,-7.699118 -0.43133,-9.394722 -2.2514,-14.454107 -0.87834,-2.441573 -2.76207,-6.319908 -3.82933,-7.884058 -0.34809,-0.510145 -0.63381,-1.249004 -0.63493,-1.641909 -0.002,-0.699417 0.0449,-0.710138 2.23951,-0.51204 10.18419,0.919281 18.57122,4.809031 25.59204,11.869115 5.04348,5.071686 8.21467,10.574459 10.17901,17.662989 l 0.59535,2.14842 H 215.9776 200.11053 Z"
     id="path618" />
  <path
     style="fill:#ffffff;stroke-width:0.309179"
     d="m 74.978541,215.29326 c -8.759576,-1.87667 -15.873495,-8.77655 -18.089884,-17.54562 -0.839166,-3.32013 -0.839166,-8.17515 0,-11.49528 2.097164,-8.29736 8.640268,-14.96196 17.023685,-17.3398 1.892366,-0.53675 4.572875,-0.56473 54.087658,-0.56473 49.46737,0 52.19804,0.0284 54.10628,0.56357 8.42487,2.3626 14.89073,9.01735 17.04727,17.5453 0.91353,3.61252 0.71414,9.24451 -0.45347,12.809 -2.1261,6.49055 -7.29478,12.12839 -13.49615,14.72121 -4.55764,1.90556 -1.893,1.82229 -57.42278,1.79465 -43.746913,-0.0218 -50.935322,-0.0883 -52.802609,-0.4883 z m 23.768197,-15.6346 c 1.946192,-0.58111 4.341372,-3.07804 4.953622,-5.16405 0.27108,-0.92362 0.49288,-2.04619 0.49288,-2.49461 0,-0.44842 -0.2218,-1.57099 -0.49288,-2.49461 -0.61225,-2.08601 -3.00743,-4.58294 -4.953622,-5.16405 -0.889965,-0.26574 -4.190003,-0.37908 -10.975846,-0.37697 -9.511567,0.003 -9.733843,0.0173 -11.251403,0.72396 -2.9248,1.36201 -4.545153,3.96863 -4.545153,7.31167 0,3.34304 1.620353,5.94966 4.545153,7.31167 1.51756,0.7067 1.739836,0.721 11.251403,0.72396 6.785843,0.002 10.085881,-0.11123 10.975846,-0.37697 z m 80.733772,-0.34699 c 2.9248,-1.36201 4.54515,-3.96863 4.54515,-7.31167 0,-3.34304 -1.62035,-5.94966 -4.54515,-7.31167 -1.51756,-0.70669 -1.73983,-0.721 -11.2514,-0.72396 -6.78585,-0.002 -10.08588,0.11123 -10.97585,0.37697 -1.94619,0.58111 -4.34137,3.07804 -4.95362,5.16405 -0.27108,0.92362 -0.49288,2.04619 -0.49288,2.49461 0,0.44842 0.2218,1.57099 0.49288,2.49461 0.57778,1.96855 2.99375,4.57289 4.76552,5.13708 0.6906,0.21991 4.64563,0.35412 10.97349,0.37237 9.74373,0.0281 9.91719,0.0176 11.44186,-0.69239 z"
     id="path620" />
  <path
     style="fill:#808080;stroke-width:0.309179"
     d="m 200.03682,106.28019 c -0.001,-3.31458 -0.18458,-6.85484 -0.44479,-8.580992 -0.74285,-4.927684 -2.6715,-10.247275 -5.26028,-14.508859 -0.60227,-0.991445 -1.09504,-2.111592 -1.09504,-2.489215 0,-0.665572 0.0686,-0.680138 2.24155,-0.475875 8.00291,0.752296 15.26343,3.490549 21.29564,8.031492 7.07857,5.32862 12.02806,12.685989 14.47541,21.517549 l 0.59535,2.14842 h -15.903 -15.90301 z"
     id="path265" />
  <path
     style="fill:#e9afaf;stroke-width:0.309179"
     d="m 75.130435,215.32452 c -8.343405,-1.79801 -15.174409,-7.95026 -17.830512,-16.05882 -1.17125,-3.57559 -1.366614,-9.18792 -0.447548,-12.85698 2.096561,-8.3698 8.459409,-14.95962 16.886755,-17.48914 1.748801,-0.52491 4.795272,-0.56217 53.17874,-0.65036 56.41223,-0.10282 53.688,-0.18453 58.30212,1.74882 6.24118,2.61509 11.27719,8.10394 13.50215,14.71626 0.7614,2.2628 0.83227,2.88153 0.83227,7.2657 0,4.38417 -0.0709,5.0029 -0.83227,7.2657 -2.21088,6.57046 -7.307,12.12415 -13.50215,14.71446 -4.576,1.91332 -1.88792,1.82899 -57.43884,1.80202 -42.188253,-0.0205 -50.976498,-0.0969 -52.650715,-0.45766 z M 99.41816,199.30475 c 2.66442,-1.2407 4.77508,-4.4695 4.77508,-7.30475 0,-2.83525 -2.11066,-6.06405 -4.77508,-7.30475 -1.53959,-0.71691 -1.711824,-0.7278 -11.456807,-0.72409 -10.859771,0.004 -11.068676,0.0352 -13.387181,1.99232 -3.37966,2.85283 -3.394946,9.20763 -0.02898,12.04865 2.35131,1.98461 2.537252,2.01256 13.416162,2.01671 9.744983,0.004 9.917217,-0.007 11.456806,-0.72409 z m 79.77114,0.14942 c 3.05079,-1.38566 4.82899,-4.14701 4.81308,-7.47418 -0.0159,-3.33354 -1.77843,-6.05582 -4.81308,-7.43416 -1.13764,-0.51671 -2.19596,-0.57125 -11.15065,-0.57467 -9.74499,-0.004 -9.91722,0.007 -11.45681,0.72409 -1.95035,0.90819 -3.72027,2.93754 -4.31827,4.95123 -0.5796,1.95172 -0.57405,2.77402 0.0325,4.81655 0.62358,2.09982 3.09941,4.70419 4.93196,5.18801 0.71882,0.18978 5.25528,0.33411 10.96519,0.34886 8.84196,0.0229 9.85491,-0.0274 10.99606,-0.54573 z"
     id="path336" />
</svg>
