<?xml version="1.0" encoding="UTF-8" standalone="no"?>
<svg
   viewBox="0 0 256 256"
   version="1.1"
   id="svg12"
   sodipodi:docname="soybean4.svg"
   inkscape:version="1.2.2 (b0a8486541, 2022-12-01)"
   xmlns:inkscape="http://www.inkscape.org/namespaces/inkscape"
   xmlns:sodipodi="http://sodipodi.sourceforge.net/DTD/sodipodi-0.dtd"
   xmlns="http://www.w3.org/2000/svg"
   xmlns:svg="http://www.w3.org/2000/svg">
  <defs
     id="defs16" />
  <sodipodi:namedview
     id="namedview14"
     pagecolor="#ffffff"
     bordercolor="#000000"
     borderopacity="0.25"
     inkscape:showpageshadow="2"
     inkscape:pageopacity="0.0"
     inkscape:pagecheckerboard="0"
     inkscape:deskcolor="#d1d1d1"
     showgrid="false"
     inkscape:zoom="3.234375"
     inkscape:cx="94.763285"
     inkscape:cy="128"
     inkscape:window-width="1920"
     inkscape:window-height="1008"
     inkscape:window-x="0"
     inkscape:window-y="0"
     inkscape:window-maximized="1"
     inkscape:current-layer="svg12" />
  <rect
     width="256"
     height="256"
     fill="none"
     id="rect2" />
  <path
     d="M138.54,149.46C106.62,96.25,149.18,43.05,239.63,48.37,245,138.82,191.75,181.38,138.54,149.46Z"
     fill="none"
     stroke="currentColor"
     stroke-linecap="round"
     stroke-linejoin="round"
     stroke-width="16"
     id="path4" />
  <path
     d="M88.47,160.47c22.8-38-7.6-76-72.21-72.21C12.46,152.87,50.47,183.27,88.47,160.47Z"
     fill="none"
     stroke="currentColor"
     stroke-linecap="round"
     stroke-linejoin="round"
     stroke-width="16"
     id="path6" />
  <line
     x1="56"
     y1="128"
     x2="120"
     y2="192"
     fill="none"
     stroke="currentColor"
     stroke-linecap="round"
     stroke-linejoin="round"
     stroke-width="16"
     id="line8" />
  <path
     d="M200,88l-61.25,61.25A64,64,0,0,0,120,194.51V224"
     fill="none"
     stroke="currentColor"
     stroke-linecap="round"
     stroke-linejoin="round"
     stroke-width="16"
     id="path10" />
  <path
     style="fill:#abc837;stroke-width:0.309179"
     d="M 58.451376,159.39487 C 53.193483,158.39345 48.62963,156.26615 44.188874,152.74686 36.264263,146.46663 29.75207,134.73575 26.74341,121.3211 25.230701,114.57642 24.125953,104.99246 24.118656,98.550725 l -0.0027,-2.396136 h 2.8923 c 6.079937,0 14.691832,0.950048 21.069053,2.324297 27.370079,5.898074 42.671709,22.486714 39.229001,42.528544 -0.275259,1.60242 -0.619641,3.22694 -0.765295,3.61004 -0.621876,1.63565 -1.28704,1.08503 -13.576323,-11.23854 -13.239389,-13.27633 -13.408223,-13.4092 -17.045315,-13.41456 -1.648882,-0.002 -2.376127,0.16649 -3.704493,0.86044 -1.906117,0.99577 -3.495985,2.89615 -4.009052,4.79206 -0.450957,1.66639 -0.208958,4.73355 0.481863,6.10725 0.295443,0.58748 6.17225,6.72022 13.059575,13.62831 6.887321,6.90808 12.384355,12.64547 12.215627,12.74975 -0.168725,0.10428 -1.470704,0.47462 -2.893282,0.82298 -3.420411,0.83759 -9.498726,1.06385 -12.618225,0.46971 z"
     id="path260" />
  <path
     style="fill:#abc837;stroke-width:0.309179"
     d="m 168.50242,151.61413 c -3.27223,-0.41301 -8.29663,-1.54347 -11.28503,-2.53906 -3.3961,-1.13142 -3.40096,-1.13448 -3.40096,-2.13534 0,-0.91595 2.2797,-3.28637 26.46381,-27.5169 18.20514,-18.24009 26.64307,-26.900565 27.03823,-27.751332 0.90504,-1.948559 0.96437,-4.972791 0.13534,-6.89991 -1.62971,-3.788378 -5.74342,-5.701396 -9.78142,-4.548708 l -1.80766,0.516014 -27.08321,27.059216 c -22.52872,22.50876 -27.20543,27.04155 -27.80995,26.95422 -0.60997,-0.0881 -0.88585,-0.55361 -1.71696,-2.89698 -3.70531,-10.44735 -4.01605,-21.77263 -0.8608,-31.37226 1.0066,-3.062479 3.71971,-8.567613 5.60155,-11.366006 8.96957,-13.338193 25.09489,-23.377097 45.99498,-28.634415 10.74785,-2.703572 20.12216,-3.88063 32.85024,-4.124742 l 9.04348,-0.173446 -0.003,4.448822 c -0.0149,22.248869 -4.163,42.583727 -11.8185,57.936747 -3.97431,7.97041 -7.76488,13.32761 -13.34464,18.8599 -7.25212,7.19042 -14.91858,11.48072 -24.07836,13.47473 -2.79363,0.60814 -11.48427,1.04427 -14.13705,0.70945 z"
     id="path262" />
  <path
     style="fill:#447821;stroke-width:0.309179"
     d="M 57.816425,159.11649 C 47.845758,156.77977 40.151309,150.65066 34.278617,140.36715 28.046931,129.45502 25.19053,117.81532 24.278111,99.615579 l -0.175243,-3.495533 4.257745,0.192539 c 9.472772,0.428367 18.186028,1.708828 25.02693,3.677847 18.687699,5.378878 30.82806,16.075048 33.618995,29.619718 0.642764,3.1194 0.605736,9.18296 -0.07607,12.45748 -0.871018,4.18325 -0.364902,4.49856 -13.268053,-8.26606 -6.079546,-6.01427 -11.875525,-11.55232 -12.879957,-12.30677 -1.719293,-1.29141 -1.961717,-1.37858 -4.139878,-1.48857 -2.989829,-0.15098 -4.289088,0.26367 -6.194716,1.97699 -2.088066,1.87735 -2.649529,3.38573 -2.462551,6.61566 0.117175,2.02413 0.28904,2.67396 0.962167,3.63803 0.450731,0.64554 6.186889,6.65398 12.747021,13.35209 6.56013,6.6981 11.814135,12.29174 11.675567,12.43031 -1.119221,1.11922 -12.141827,1.89677 -15.553642,1.09718 z"
     id="path131" />
</svg>
